M48
FMAT,1
INCH
T01C000.01000
T02C000.03600
%
G81
M70
T01
X00022887Y00042826
X00022887Y00080796
X00023483Y00046325
X00023483Y00077297
X00024368Y00049645
X00024368Y00073977
X00025520Y00052763
X00025520Y00070859
X00027685Y00035149
X00027685Y00088474
X00028428Y00059477
X00028428Y00064145
X00029331Y00073622
X00031090Y00034150
X00031090Y00089472
X00034252Y00057874
X00034462Y00033491
X00034462Y00090131
X00037205Y00074606
X00037770Y00033160
X00037770Y00090462
X00040157Y00042126
X00040157Y00050000
X00043098Y00034068
X00043098Y00089554
X00045079Y00057874
X00047141Y00031733
X00047141Y00091889
X00048031Y00052953
X00048031Y00055906
X00048031Y00065748
X00048031Y00071654
X00049016Y00075591
X00049019Y00026665
X00049019Y00096957
X00050959Y00023966
X00050959Y00099656
X00051969Y00075591
X00053216Y00021376
X00053216Y00102246
X00054921Y00075591
X00055784Y00018925
X00055784Y00104697
X00057874Y00057874
X00057874Y00061811
X00057874Y00065748
X00057874Y00075591
X00060827Y00075591
X00061811Y00057874
X00061811Y00061811
X00061811Y00065748
X00062795Y00048031
X00063780Y00039173
X00063780Y00078543
X00065748Y00048031
X00065748Y00057874
X00065748Y00061811
X00065748Y00065748
X00066732Y00075591
X00067838Y00018925
X00067838Y00104697
X00068701Y00048031
X00069685Y00075591
X00070406Y00021376
X00070406Y00102246
X00071654Y00048031
X00072638Y00075591
X00072663Y00023966
X00072663Y00099656
X00074603Y00026665
X00074603Y00096957
X00075591Y00057874
X00075591Y00065748
X00075591Y00068701
X00075591Y00072638
X00076481Y00031733
X00076481Y00091889
X00079035Y00091645
X00079528Y00048032
X00080512Y00075591
X00080524Y00034068
X00080524Y00089554
X00085852Y00033160
X00085852Y00090462
X00086417Y00041142
X00087402Y00053030
X00089160Y00033491
X00089160Y00090131
X00089370Y00057874
X00090354Y00080512
X00092532Y00034150
X00092532Y00089472
X00095194Y00059477
X00095194Y00064145
X00095937Y00035149
X00095937Y00088474
X00098102Y00052763
X00098102Y00070859
X00099254Y00049645
X00099254Y00073977
X00100139Y00046325
X00100139Y00077297
X00100735Y00042826
X00100735Y00080796
T02
X00020472Y00020472
X00020472Y00103150
X00103150Y00020472
X00103150Y00103150
M30
