G04 GENERATED BY PULSONIX 8.5 GERBER.DLL 5900*
G04 #@! TF.Part,Single*
%FSLAX35Y35*%
%LPD*%
%MOIN*%
G04 #@! TF.FileFunction,Paste,Top*
G04 #@! TA.AperFunction,Profile*
%ADD10C,0.00001*%
G04 #@! TA.AperFunction,SMDPad*
%ADD99R,0.03346X0.04528*%
%ADD121R,0.00984X0.00984*%
%ADD174R,0.01772X0.01378*%
%ADD175R,0.01378X0.01772*%
G04 #@! TA.AperFunction,NonMaterial*
%ADD286C,0.00197*%
G04 #@! TA.AperFunction,SMDPad*
%ADD287R,0.02559X0.02559*%
%ADD288R,0.01378X0.03346*%
%ADD289R,0.01083X0.01083*%
%AMT290*0 Bullet Pad at angle 0*1,1,0.00787,0.00000,0.00295*21,1,0.00787,0.00591,0,0,0*%
%ADD290T290*%
%AMT291*0 Bullet Pad at angle 90*1,1,0.00787,-0.00295,0.00000*21,1,0.00787,0.00591,0,0,90*%
%ADD291T291*%
%AMT292*0 Bullet Pad at angle 180*1,1,0.00787,0.00000,-0.00295*21,1,0.00787,0.00591,0,0,180*%
%ADD292T292*%
%AMT293*0 Bullet Pad at angle 270*1,1,0.00787,0.00295,0.00000*21,1,0.00787,0.00591,0,0,270*%
%ADD293T293*%
%ADD294R,0.09843X0.09843*%
%AMT295*0 Rectangle Pad at angle 84*21,1,0.01378,0.01772,0,0,84*%
%ADD295T295*%
%AMT296*0 Rectangle Pad at angle 78*21,1,0.01378,0.01772,0,0,78*%
%ADD296T296*%
%AMT297*0 Rectangle Pad at angle 72*21,1,0.01378,0.01772,0,0,72*%
%ADD297T297*%
%AMT298*0 Rectangle Pad at angle 66*21,1,0.01378,0.01772,0,0,66*%
%ADD298T298*%
%AMT299*0 Rectangle Pad at angle 60*21,1,0.01378,0.01772,0,0,60*%
%ADD299T299*%
%AMT300*0 Rectangle Pad at angle 18*21,1,0.01378,0.01772,0,0,18*%
%ADD300T300*%
%AMT301*0 Rectangle Pad at angle 12*21,1,0.01378,0.01772,0,0,12*%
%ADD301T301*%
%AMT302*0 Rectangle Pad at angle 6*21,1,0.01378,0.01772,0,0,6*%
%ADD302T302*%
%AMT303*0 Rectangle Pad at angle 174*21,1,0.01378,0.01772,0,0,174*%
%ADD303T303*%
%AMT304*0 Rectangle Pad at angle 168*21,1,0.01378,0.01772,0,0,168*%
%ADD304T304*%
%AMT305*0 Rectangle Pad at angle 36*21,1,0.01378,0.01772,0,0,36*%
%ADD305T305*%
%AMT306*0 Rectangle Pad at angle 30*21,1,0.01378,0.01772,0,0,30*%
%ADD306T306*%
%AMT307*0 Rectangle Pad at angle 24*21,1,0.01378,0.01772,0,0,24*%
%ADD307T307*%
%AMT308*0 Rectangle Pad at angle 108*21,1,0.01378,0.01772,0,0,108*%
%ADD308T308*%
%AMT309*0 Rectangle Pad at angle 102*21,1,0.01378,0.01772,0,0,102*%
%ADD309T309*%
%AMT310*0 Rectangle Pad at angle 96*21,1,0.01378,0.01772,0,0,96*%
%ADD310T310*%
%AMT311*0 Rectangle Pad at angle 162*21,1,0.01378,0.01772,0,0,162*%
%ADD311T311*%
%AMT312*0 Rectangle Pad at angle 156*21,1,0.01378,0.01772,0,0,156*%
%ADD312T312*%
%AMT313*0 Rectangle Pad at angle 150*21,1,0.01378,0.01772,0,0,150*%
%ADD313T313*%
%AMT314*0 Rectangle Pad at angle 144*21,1,0.01378,0.01772,0,0,144*%
%ADD314T314*%
%AMT315*0 Rectangle Pad at angle 138*21,1,0.01378,0.01772,0,0,138*%
%ADD315T315*%
%AMT316*0 Rectangle Pad at angle 132*21,1,0.01378,0.01772,0,0,132*%
%ADD316T316*%
%AMT317*0 Rectangle Pad at angle 54*21,1,0.01378,0.01772,0,0,54*%
%ADD317T317*%
%AMT318*0 Rectangle Pad at angle 48*21,1,0.01378,0.01772,0,0,48*%
%ADD318T318*%
%AMT319*0 Rectangle Pad at angle 42*21,1,0.01378,0.01772,0,0,42*%
%ADD319T319*%
%AMT320*0 Rectangle Pad at angle 126*21,1,0.01378,0.01772,0,0,126*%
%ADD320T320*%
%AMT321*0 Rectangle Pad at angle 120*21,1,0.01378,0.01772,0,0,120*%
%ADD321T321*%
%AMT322*0 Rectangle Pad at angle 114*21,1,0.01378,0.01772,0,0,114*%
%ADD322T322*%
X0Y0D02*
D02*
D10*
X61811Y123622D02*
G75*
G03Y0J-61811D01*
G01*
G75*
G03Y123622J61811*
G01*
D02*
D99*
X74016Y41142D03*
X81102D03*
D02*
D121*
X40159Y44999D03*
Y47125D03*
X43109Y45001D03*
Y47127D03*
X45080Y60747D03*
Y62873D03*
X46064Y44999D03*
Y47125D03*
X48033Y60747D03*
Y62873D03*
X57875Y44999D03*
Y47125D03*
X60749Y31300D03*
X62875D03*
X76576Y50904D03*
Y53030D03*
X79529Y50904D03*
Y53030D03*
X81416Y68700D03*
X82481Y50904D03*
Y53030D03*
X83542Y68700D03*
X85434Y50904D03*
Y53030D03*
D02*
D174*
X41142Y59843D03*
Y63780D03*
X61811Y10630D03*
Y14567D03*
Y109055D03*
Y112992D03*
D02*
D175*
X10630Y61811D03*
X14567D03*
X80512Y72638D03*
X84449D03*
X109055Y61811D03*
X112992D03*
D02*
D286*
X20472Y22441D02*
G75*
G03Y18504J-1968D01*
G01*
G75*
G03Y22441J1969*
G01*
G36*
G75*
G03Y18504J-1968*
G01*
G75*
G03Y22441J1969*
G01*
G37*
X103150Y105118D02*
G75*
G03Y101181J-1968D01*
G01*
G75*
G03Y105118J1969*
G01*
G36*
G75*
G03Y101181J-1968*
G01*
G75*
G03Y105118J1969*
G01*
G37*
D02*
D287*
X58858Y35236D03*
X64764D03*
D02*
D288*
X49803Y46063D03*
X54134D03*
D02*
D289*
X79478Y60827D03*
Y62795D03*
X79528Y58809D03*
Y64813D03*
X81496Y58809D03*
Y64813D03*
X83465Y58809D03*
Y64813D03*
X85433Y58809D03*
Y64813D03*
X85482Y60827D03*
Y62795D03*
D02*
D290*
X54921Y52559D03*
X56890D03*
X58858D03*
X60827D03*
X62795D03*
X64764D03*
X66732D03*
X68701D03*
D02*
D291*
X71063Y54921D03*
Y56890D03*
Y58858D03*
Y60827D03*
Y62795D03*
Y64764D03*
Y66732D03*
Y68701D03*
D02*
D292*
X54921Y71063D03*
X56890D03*
X58858D03*
X60827D03*
X62795D03*
X64764D03*
X66732D03*
X68701D03*
D02*
D293*
X52559Y54921D03*
Y56890D03*
Y58858D03*
Y60827D03*
Y62795D03*
Y64764D03*
Y66732D03*
Y68701D03*
D02*
D294*
X61811Y61811D03*
D02*
D295*
X56461Y10910D03*
X56873Y14826D03*
X66749Y108796D03*
X67161Y112712D03*
D02*
D296*
X51170Y11748D03*
X51988Y15599D03*
X71634Y108023D03*
X72452Y111874D03*
D02*
D297*
X45995Y13135D03*
X47212Y16879D03*
X76410Y106743D03*
X77627Y110487D03*
D02*
D298*
X40994Y15055D03*
X42595Y18651D03*
X81027Y104971D03*
X82628Y108567D03*
D02*
D299*
X36220Y17487D03*
X38189Y20896D03*
X85433Y102726D03*
X87402Y106135D03*
D02*
D300*
X13135Y45995D03*
X16879Y47212D03*
X106743Y76410D03*
X110487Y77627D03*
D02*
D301*
X11748Y51170D03*
X15599Y51988D03*
X108023Y71634D03*
X111874Y72452D03*
D02*
D302*
X10910Y56461D03*
X14826Y56873D03*
X108796Y66749D03*
X112712Y67161D03*
D02*
D303*
X10910D03*
X14826Y66749D03*
X108796Y56873D03*
X112712Y56461D03*
D02*
D304*
X11748Y72452D03*
X15599Y71634D03*
X108023Y51988D03*
X111874Y51170D03*
D02*
D305*
X20405Y31728D03*
X23590Y34042D03*
X100032Y89580D03*
X103217Y91895D03*
D02*
D306*
X17487Y36220D03*
X20896Y38189D03*
X102726Y85433D03*
X106135Y87402D03*
D02*
D307*
X15055Y40994D03*
X18651Y42595D03*
X104971Y81027D03*
X108567Y82628D03*
D02*
D308*
X45995Y110487D03*
X47212Y106743D03*
X76410Y16879D03*
X77627Y13135D03*
D02*
D309*
X51170Y111874D03*
X51988Y108023D03*
X71634Y15599D03*
X72452Y11748D03*
D02*
D310*
X56461Y112712D03*
X56873Y108796D03*
X66749Y14826D03*
X67161Y10910D03*
D02*
D311*
X13135Y77627D03*
X16879Y76410D03*
X106743Y47212D03*
X110487Y45995D03*
D02*
D312*
X15055Y82628D03*
X18651Y81027D03*
X104971Y42595D03*
X108567Y40994D03*
D02*
D313*
X17487Y87402D03*
X20896Y85433D03*
X102726Y38189D03*
X106135Y36220D03*
D02*
D314*
X20405Y91895D03*
X23590Y89580D03*
X100032Y34042D03*
X103217Y31728D03*
D02*
D315*
X23776Y96058D03*
X26702Y93423D03*
X96920Y30199D03*
X99846Y27564D03*
D02*
D316*
X27564Y99846D03*
X30199Y96920D03*
X93423Y26702D03*
X96058Y23776D03*
D02*
D317*
X31728Y20405D03*
X34042Y23590D03*
X89580Y100032D03*
X91895Y103217D03*
D02*
D318*
X27564Y23776D03*
X30199Y26702D03*
X93423Y96920D03*
X96058Y99846D03*
D02*
D319*
X23776Y27564D03*
X26702Y30199D03*
X96920Y93423D03*
X99846Y96058D03*
D02*
D320*
X31728Y103217D03*
X34042Y100032D03*
X89580Y23590D03*
X91895Y20405D03*
D02*
D321*
X36220Y106135D03*
X38189Y102726D03*
X85433Y20896D03*
X87402Y17487D03*
D02*
D322*
X40994Y108567D03*
X42595Y104971D03*
X81027Y18651D03*
X82628Y15055D03*
X0Y0D02*
M02*
