G04 GENERATED BY PULSONIX 8.5 GERBER.DLL 5900*
G04 #@! TF.Part,Single*
%FSLAX35Y35*%
%LPD*%
%MOIN*%
G04 #@! TF.FileFunction,Legend,Top*
G04 #@! TA.AperFunction,Profile*
%ADD10C,0.00001*%
G04 #@! TD.AperFunction*
%ADD76C,0.00001*%
G04 #@! TA.AperFunction,NonMaterial*
%ADD97C,0.00001*%
%ADD236C,0.00512*%
X0Y0D02*
D02*
D10*
X61811Y123622D02*
G75*
G03Y0J-61811D01*
G01*
G75*
G03Y123622J61811*
G01*
D02*
D76*
X26035Y61813D02*
X26026Y61512D01*
X26000Y61219*
X25955Y60954*
X25902Y60697*
X25822Y60467*
X25734Y60245*
X25619Y60050*
X25503Y59873*
X25362Y59714*
X25211Y59572*
X25043Y59457*
X24857Y59350*
X24662Y59271*
X24458Y59218*
X24237Y59182*
X23998Y59173*
X23723Y59182*
X23466Y59218*
X23236Y59280*
X23014Y59359*
Y60201*
X23209Y60094*
X23422Y60024*
X23652Y59979*
X23900Y59962*
X24033Y59970*
X24148Y59979*
X24263Y60015*
X24370Y60050*
X24476Y60103*
X24564Y60165*
X24653Y60236*
X24733Y60325*
X24804Y60413*
X24866Y60520*
X24919Y60635*
X24954Y60768*
X24990Y60901*
X25016Y61042*
X25025Y61202*
X25034Y61370*
X25016*
X24928Y61264*
X24839Y61175*
X24742Y61095*
X24626Y61033*
X24502Y60980*
X24370Y60945*
X24228Y60927*
X24077Y60918*
X23936Y60927*
X23794Y60945*
X23670Y60980*
X23546Y61025*
X23431Y61087*
X23315Y61149*
X23218Y61228*
X23121Y61326*
X23041Y61423*
X22970Y61530*
X22899Y61645*
X22846Y61778*
X22802Y61910*
X22775Y62052*
X22757Y62203*
X22749Y62353*
X22757Y62531*
X22775Y62708*
X22819Y62867*
X22873Y63027*
X22935Y63168*
X23014Y63310*
X23103Y63434*
X23209Y63549*
X23324Y63647*
X23448Y63735*
X23581Y63815*
X23723Y63886*
X23882Y63930*
X24042Y63974*
X24219Y63992*
X24396Y64001*
X24582Y63992*
X24759Y63966*
X24928Y63921*
X25078Y63850*
X25229Y63771*
X25362Y63673*
X25486Y63558*
X25601Y63425*
X25698Y63275*
X25787Y63115*
X25858Y62929*
X25920Y62734*
X25973Y62531*
X26008Y62300*
X26026Y62061*
X26035Y61813*
X24999Y62362D02*
X24981Y62531D01*
X24945Y62690*
X24892Y62841*
X24821Y62965*
X24733Y63071*
X24626Y63142*
X24502Y63195*
X24361Y63213*
X24237Y63195*
X24122Y63151*
X24015Y63080*
X23927Y62991*
X23847Y62876*
X23794Y62743*
X23758Y62601*
X23750Y62442*
X23758Y62265*
X23794Y62114*
X23847Y61981*
X23927Y61875*
X24015Y61795*
X24122Y61733*
X24246Y61689*
X24387Y61680*
X24520Y61689*
X24635Y61733*
X24742Y61795*
X24830Y61875*
X24901Y61972*
X24954Y62088*
X24981Y62220*
X24999Y62362*
X25986Y62446D02*
G36*
X24990D01*
X24999Y62362*
X24981Y62220*
X24954Y62088*
X24901Y61972*
X24830Y61875*
X24742Y61795*
X24635Y61733*
X24520Y61689*
X24387Y61680*
X24246Y61689*
X24122Y61733*
X24015Y61795*
X23927Y61875*
X23847Y61981*
X23794Y62114*
X23758Y62265*
X23750Y62442*
X23750Y62446*
X22753*
X22749Y62353*
X22757Y62203*
X22775Y62052*
X22802Y61910*
X22846Y61778*
X22899Y61645*
X22970Y61530*
X23041Y61423*
X23121Y61326*
X23218Y61228*
X23315Y61149*
X23431Y61087*
X23546Y61025*
X23670Y60980*
X23794Y60945*
X23936Y60927*
X24077Y60918*
X24228Y60927*
X24370Y60945*
X24502Y60980*
X24626Y61033*
X24742Y61095*
X24839Y61175*
X24928Y61264*
X25016Y61370*
X25034*
X25025Y61202*
X25016Y61042*
X24990Y60901*
X24954Y60768*
X24919Y60635*
X24866Y60520*
X24804Y60413*
X24733Y60325*
X24653Y60236*
X24564Y60165*
X24476Y60103*
X24370Y60050*
X24263Y60015*
X24148Y59979*
X24033Y59970*
X23900Y59962*
X23652Y59979*
X23422Y60024*
X23209Y60094*
X23014Y60201*
Y59359*
X23236Y59280*
X23466Y59218*
X23723Y59182*
X23998Y59173*
X24237Y59182*
X24458Y59218*
X24662Y59271*
X24857Y59350*
X25043Y59457*
X25211Y59572*
X25362Y59714*
X25503Y59873*
X25619Y60050*
X25734Y60245*
X25822Y60467*
X25902Y60697*
X25955Y60954*
X26000Y61219*
X26026Y61512*
X26035Y61813*
X26026Y62061*
X26008Y62300*
X25986Y62446*
G37*
X24396Y64001D02*
G36*
X24219Y63992D01*
X24042Y63974*
X23882Y63930*
X23723Y63886*
X23581Y63815*
X23448Y63735*
X23324Y63647*
X23209Y63549*
X23103Y63434*
X23014Y63310*
X22935Y63168*
X22873Y63027*
X22819Y62867*
X22775Y62708*
X22757Y62531*
X22753Y62446*
X23750*
X23758Y62601*
X23794Y62743*
X23847Y62876*
X23927Y62991*
X24015Y63080*
X24122Y63151*
X24237Y63195*
X24361Y63213*
X24502Y63195*
X24626Y63142*
X24733Y63071*
X24821Y62965*
X24892Y62841*
X24945Y62690*
X24981Y62531*
X24990Y62446*
X25986*
X25973Y62531*
X25920Y62734*
X25858Y62929*
X25787Y63115*
X25698Y63275*
X25601Y63425*
X25486Y63558*
X25362Y63673*
X25229Y63771*
X25078Y63850*
X24928Y63921*
X24759Y63966*
X24582Y63992*
X24396Y64001*
G37*
X26035Y61813D02*
X24999Y62362*
X29876Y82227*
Y77462D01*
X28857*
Y81067*
X28768Y80996*
X28653Y80925*
X28414Y80801*
X28281Y80757*
X28139Y80713*
X28006Y80677*
X27865Y80659*
Y81528*
X28255Y81660*
X28618Y81829*
X28954Y82015*
X29114Y82121*
X29256Y82227*
X29876*
G36*
Y77462*
X28857*
Y81067*
X28768Y80996*
X28653Y80925*
X28414Y80801*
X28281Y80757*
X28139Y80713*
X28006Y80677*
X27865Y80659*
Y81528*
X28255Y81660*
X28618Y81829*
X28954Y82015*
X29114Y82121*
X29256Y82227*
X29876*
G37*
X28428Y42435D02*
X28446Y42621D01*
X28481Y42807*
X28552Y42984*
X28659Y43143*
X28783Y43285*
X28942Y43418*
X29128Y43533*
X29341Y43622*
X29172Y43710*
X29031Y43816*
X28898Y43941*
X28791Y44073*
X28703Y44215*
X28650Y44366*
X28605Y44516*
X28596Y44685*
X28605Y44817*
X28623Y44941*
X28659Y45057*
X28712Y45181*
X28774Y45287*
X28845Y45393*
X28924Y45482*
X29022Y45570*
X29128Y45650*
X29234Y45721*
X29358Y45783*
X29491Y45827*
X29633Y45872*
X29784Y45898*
X29934Y45916*
X30094Y45925*
X30253Y45916*
X30412Y45898*
X30563Y45872*
X30705Y45827*
X30838Y45783*
X30962Y45721*
X31077Y45650*
X31174Y45570*
X31272Y45491*
X31360Y45393*
X31431Y45296*
X31493Y45181*
X31537Y45066*
X31573Y44950*
X31591Y44826*
X31599Y44693*
X31591Y44534*
X31546Y44375*
X31484Y44233*
X31396Y44091*
X31281Y43958*
X31148Y43843*
X30988Y43737*
X30811Y43639*
X31033Y43551*
X31219Y43444*
X31378Y43312*
X31511Y43161*
X31608Y43002*
X31679Y42824*
X31723Y42638*
X31741Y42443*
X31732Y42293*
X31715Y42151*
X31670Y42018*
X31617Y41894*
X31555Y41770*
X31475Y41664*
X31387Y41566*
X31281Y41469*
X31165Y41389*
X31041Y41310*
X30900Y41248*
X30758Y41194*
X30598Y41150*
X30439Y41124*
X30262Y41106*
X30085Y41097*
X29908Y41106*
X29739Y41124*
X29571Y41150*
X29420Y41194*
X29270Y41248*
X29137Y41310*
X29013Y41380*
X28898Y41460*
X28791Y41558*
X28703Y41655*
X28623Y41770*
X28552Y41885*
X28499Y42009*
X28464Y42142*
X28437Y42284*
X28428Y42435*
X29394Y42514D02*
X29403Y42364D01*
X29447Y42231*
X29500Y42116*
X29580Y42018*
X29686Y41939*
X29801Y41877*
X29934Y41841*
X30085Y41832*
X30226Y41841*
X30359Y41877*
X30483Y41939*
X30581Y42018*
X30660Y42116*
X30722Y42231*
X30767Y42364*
X30776Y42514*
X30767Y42656*
X30722Y42789*
X30669Y42904*
X30590Y43002*
X30483Y43090*
X30368Y43152*
X30235Y43196*
X30085Y43214*
X29943Y43196*
X29810Y43161*
X29695Y43099*
X29589Y43019*
X29509Y42913*
X29447Y42798*
X29411Y42665*
X29394Y42514*
X29535Y44587D02*
X29544Y44472D01*
X29580Y44357*
X29633Y44251*
X29704Y44162*
X29784Y44091*
X29881Y44038*
X29987Y44003*
X30094Y43994*
X30209Y44003*
X30315Y44038*
X30412Y44091*
X30492Y44171*
X30563Y44259*
X30616Y44357*
X30652Y44472*
X30660Y44587*
X30652Y44711*
X30616Y44826*
X30563Y44933*
X30501Y45012*
X30412Y45092*
X30315Y45145*
X30209Y45181*
X30094Y45190*
X29978Y45181*
X29872Y45145*
X29775Y45083*
X29695Y45012*
X29624Y44924*
X29580Y44826*
X29544Y44711*
X29535Y44587*
X31734Y42523D02*
G36*
X30775D01*
X30776Y42514*
X30767Y42364*
X30722Y42231*
X30660Y42116*
X30581Y42018*
X30483Y41939*
X30359Y41877*
X30226Y41841*
X30085Y41832*
X29934Y41841*
X29801Y41877*
X29686Y41939*
X29580Y42018*
X29500Y42116*
X29447Y42231*
X29403Y42364*
X29394Y42514*
X29395Y42523*
X28437*
X28428Y42435*
X28437Y42284*
X28464Y42142*
X28499Y42009*
X28552Y41885*
X28623Y41770*
X28703Y41655*
X28791Y41558*
X28898Y41460*
X29013Y41380*
X29137Y41310*
X29270Y41248*
X29420Y41194*
X29571Y41150*
X29739Y41124*
X29908Y41106*
X30085Y41097*
X30262Y41106*
X30439Y41124*
X30598Y41150*
X30758Y41194*
X30900Y41248*
X31041Y41310*
X31165Y41389*
X31281Y41469*
X31387Y41566*
X31475Y41664*
X31555Y41770*
X31617Y41894*
X31670Y42018*
X31715Y42151*
X31732Y42293*
X31741Y42443*
X31734Y42523*
G37*
X31594Y44592D02*
G36*
X30660D01*
X30660Y44587*
X30652Y44472*
X30616Y44357*
X30563Y44259*
X30492Y44171*
X30412Y44091*
X30315Y44038*
X30209Y44003*
X30094Y43994*
X29987Y44003*
X29881Y44038*
X29784Y44091*
X29704Y44162*
X29633Y44251*
X29580Y44357*
X29544Y44472*
X29535Y44587*
X29536Y44592*
X28601*
X28605Y44516*
X28650Y44366*
X28703Y44215*
X28791Y44073*
X28898Y43941*
X29031Y43816*
X29172Y43710*
X29341Y43622*
X29128Y43533*
X28942Y43418*
X28783Y43285*
X28659Y43143*
X28552Y42984*
X28481Y42807*
X28446Y42621*
X28437Y42523*
X29395*
X29411Y42665*
X29447Y42798*
X29509Y42913*
X29589Y43019*
X29695Y43099*
X29810Y43161*
X29943Y43196*
X30085Y43214*
X30235Y43196*
X30368Y43152*
X30483Y43090*
X30590Y43002*
X30669Y42904*
X30722Y42789*
X30767Y42656*
X30775Y42523*
X31734*
X31723Y42638*
X31679Y42824*
X31608Y43002*
X31511Y43161*
X31378Y43312*
X31219Y43444*
X31033Y43551*
X30811Y43639*
X30988Y43737*
X31148Y43843*
X31281Y43958*
X31396Y44091*
X31484Y44233*
X31546Y44375*
X31591Y44534*
X31594Y44592*
G37*
X30094Y45925D02*
G36*
X29934Y45916D01*
X29784Y45898*
X29633Y45872*
X29491Y45827*
X29358Y45783*
X29234Y45721*
X29128Y45650*
X29022Y45570*
X28924Y45482*
X28845Y45393*
X28774Y45287*
X28712Y45181*
X28659Y45057*
X28623Y44941*
X28605Y44817*
X28596Y44685*
X28601Y44592*
X29536*
X29544Y44711*
X29580Y44826*
X29624Y44924*
X29695Y45012*
X29775Y45083*
X29872Y45145*
X29978Y45181*
X30094Y45190*
X30209Y45181*
X30315Y45145*
X30412Y45092*
X30501Y45012*
X30563Y44933*
X30616Y44826*
X30652Y44711*
X30660Y44592*
X31594*
X31599Y44693*
X31591Y44826*
X31573Y44950*
X31537Y45066*
X31493Y45181*
X31431Y45296*
X31360Y45393*
X31272Y45491*
X31174Y45570*
X31077Y45650*
X30962Y45721*
X30838Y45783*
X30705Y45827*
X30563Y45872*
X30412Y45898*
X30253Y45916*
X30094Y45925*
G37*
X28428Y42435D02*
X29394Y42514*
X29535Y44587*
X32646Y77382*
X32442Y77391D01*
X32256Y77417*
X32079Y77462*
X31920Y77524*
X31769Y77612*
X31627Y77710*
X31512Y77834*
X31397Y77967*
X31300Y78126*
X31211Y78294*
X31140Y78489*
X31087Y78702*
X31043Y78923*
X31007Y79171*
X30990Y79437*
X30981Y79720*
X30990Y80013*
X31007Y80296*
X31043Y80553*
X31096Y80792*
X31158Y81014*
X31238Y81218*
X31326Y81404*
X31433Y81572*
X31548Y81722*
X31681Y81855*
X31822Y81962*
X31982Y82050*
X32150Y82121*
X32336Y82165*
X32531Y82201*
X32735Y82210*
X32939Y82201*
X33116Y82174*
X33293Y82121*
X33452Y82059*
X33594Y81979*
X33727Y81873*
X33851Y81749*
X33957Y81616*
X34055Y81457*
X34134Y81280*
X34205Y81085*
X34267Y80872*
X34312Y80642*
X34338Y80385*
X34356Y80119*
X34365Y79827*
X34356Y79543*
X34338Y79269*
X34303Y79021*
X34258Y78781*
X34188Y78560*
X34117Y78365*
X34028Y78179*
X33922Y78011*
X33807Y77869*
X33674Y77736*
X33532Y77630*
X33381Y77541*
X33213Y77470*
X33036Y77417*
X32850Y77391*
X32646Y77382*
X32690Y81421D02*
X32611Y81412D01*
X32540Y81395*
X32469Y81359*
X32398Y81315*
X32345Y81253*
X32283Y81182*
X32239Y81102*
X32194Y81005*
X32150Y80890*
X32124Y80766*
X32088Y80633*
X32070Y80482*
X32053Y80314*
X32035Y80137*
X32026Y79951*
Y79747*
Y79552*
X32035Y79375*
X32053Y79207*
X32070Y79056*
X32088Y78914*
X32115Y78781*
X32150Y78666*
X32194Y78560*
X32230Y78471*
X32283Y78392*
X32336Y78321*
X32398Y78268*
X32460Y78223*
X32531Y78197*
X32602Y78179*
X32682Y78170*
X32761Y78179*
X32832Y78197*
X32894Y78223*
X32956Y78268*
X33018Y78330*
X33071Y78401*
X33116Y78480*
X33160Y78578*
X33195Y78684*
X33231Y78808*
X33257Y78941*
X33284Y79083*
X33293Y79242*
X33311Y79410*
X33319Y79596*
Y79791*
Y79995*
X33311Y80172*
X33302Y80349*
X33284Y80509*
X33257Y80651*
X33231Y80783*
X33204Y80907*
X33160Y81014*
X33125Y81111*
X33071Y81191*
X33027Y81262*
X32965Y81315*
X32903Y81359*
X32841Y81395*
X32770Y81412*
X32690Y81421*
X34364Y79796D02*
G36*
X33319D01*
Y79791*
Y79596*
X33311Y79410*
X33293Y79242*
X33284Y79083*
X33257Y78941*
X33231Y78808*
X33195Y78684*
X33160Y78578*
X33116Y78480*
X33071Y78401*
X33018Y78330*
X32956Y78268*
X32894Y78223*
X32832Y78197*
X32761Y78179*
X32682Y78170*
X32602Y78179*
X32531Y78197*
X32460Y78223*
X32398Y78268*
X32336Y78321*
X32283Y78392*
X32230Y78471*
X32194Y78560*
X32150Y78666*
X32115Y78781*
X32088Y78914*
X32070Y79056*
X32053Y79207*
X32035Y79375*
X32026Y79552*
Y79747*
Y79796*
X30983*
X30981Y79720*
X30990Y79437*
X31007Y79171*
X31043Y78923*
X31087Y78702*
X31140Y78489*
X31211Y78294*
X31300Y78126*
X31397Y77967*
X31512Y77834*
X31627Y77710*
X31769Y77612*
X31920Y77524*
X32079Y77462*
X32256Y77417*
X32442Y77391*
X32646Y77382*
X32850Y77391*
X33036Y77417*
X33213Y77470*
X33381Y77541*
X33532Y77630*
X33674Y77736*
X33807Y77869*
X33922Y78011*
X34028Y78179*
X34117Y78365*
X34188Y78560*
X34258Y78781*
X34303Y79021*
X34338Y79269*
X34356Y79543*
X34364Y79796*
G37*
X32735Y82210D02*
G36*
X32531Y82201D01*
X32336Y82165*
X32150Y82121*
X31982Y82050*
X31822Y81962*
X31681Y81855*
X31548Y81722*
X31433Y81572*
X31326Y81404*
X31238Y81218*
X31158Y81014*
X31096Y80792*
X31043Y80553*
X31007Y80296*
X30990Y80013*
X30983Y79796*
X32026*
Y79951*
X32035Y80137*
X32053Y80314*
X32070Y80482*
X32088Y80633*
X32124Y80766*
X32150Y80890*
X32194Y81005*
X32239Y81102*
X32283Y81182*
X32345Y81253*
X32398Y81315*
X32469Y81359*
X32540Y81395*
X32611Y81412*
X32690Y81421*
X32770Y81412*
X32841Y81395*
X32903Y81359*
X32965Y81315*
X33027Y81262*
X33071Y81191*
X33125Y81111*
X33160Y81014*
X33204Y80907*
X33231Y80783*
X33257Y80651*
X33284Y80509*
X33302Y80349*
X33311Y80172*
X33319Y79995*
Y79796*
X34364*
X34365Y79827*
X34356Y80119*
X34338Y80385*
X34312Y80642*
X34267Y80872*
X34205Y81085*
X34134Y81280*
X34055Y81457*
X33957Y81616*
X33851Y81749*
X33727Y81873*
X33594Y81979*
X33452Y82059*
X33293Y82121*
X33116Y82174*
X32939Y82201*
X32735Y82210*
G37*
X32646Y77382D02*
X32690Y81421*
X42221Y95557*
Y90791D01*
X41202*
Y94397*
X41114Y94326*
X40999Y94255*
X40759Y94131*
X40626Y94087*
X40485Y94042*
X40352Y94007*
X40210Y93989*
Y94857*
X40600Y94990*
X40963Y95158*
X41300Y95344*
X41459Y95451*
X41601Y95557*
X42221*
G36*
Y90791*
X41202*
Y94397*
X41114Y94326*
X40999Y94255*
X40759Y94131*
X40626Y94087*
X40485Y94042*
X40352Y94007*
X40210Y93989*
Y94857*
X40600Y94990*
X40963Y95158*
X41300Y95344*
X41459Y95451*
X41601Y95557*
X42221*
G37*
X45246Y31789D02*
X45095Y31515D01*
X44944Y31240*
X44812Y30983*
X44688Y30735*
X44448Y30239*
X44245Y29761*
X44067Y29274*
X43926Y28786*
X43864Y28530*
X43802Y28264*
X43749Y27998*
X43704Y27715*
X42632*
X42739Y28246*
X42872Y28760*
X43040Y29256*
X43217Y29743*
X43430Y30204*
X43660Y30664*
X43908Y31107*
X44165Y31541*
X41995*
Y32383*
X45246*
Y31789*
G36*
X45095Y31515*
X44944Y31240*
X44812Y30983*
X44688Y30735*
X44448Y30239*
X44245Y29761*
X44067Y29274*
X43926Y28786*
X43864Y28530*
X43802Y28264*
X43749Y27998*
X43704Y27715*
X42632*
X42739Y28246*
X42872Y28760*
X43040Y29256*
X43217Y29743*
X43430Y30204*
X43660Y30664*
X43908Y31107*
X44165Y31541*
X41995*
Y32383*
X45246*
Y31789*
G37*
X45320Y95545D02*
Y90779D01*
X44301*
Y94385*
X44212Y94314*
X44097Y94243*
X43858Y94119*
X43725Y94075*
X43584Y94030*
X43451Y93995*
X43309Y93977*
Y94845*
X43699Y94978*
X44062Y95146*
X44399Y95332*
X44558Y95439*
X44700Y95545*
X45320*
G36*
Y90779*
X44301*
Y94385*
X44212Y94314*
X44097Y94243*
X43858Y94119*
X43725Y94075*
X43584Y94030*
X43451Y93995*
X43309Y93977*
Y94845*
X43699Y94978*
X44062Y95146*
X44399Y95332*
X44558Y95439*
X44700Y95545*
X45320*
G37*
X63507Y24189D02*
X63499Y24021D01*
X63481Y23861*
X63437Y23702*
X63383Y23551*
X63321Y23401*
X63242Y23268*
X63153Y23144*
X63056Y23029*
X62940Y22922*
X62816Y22834*
X62684Y22754*
X62542Y22683*
X62391Y22630*
X62232Y22586*
X62064Y22568*
X61895Y22559*
X61700Y22568*
X61523Y22594*
X61346Y22639*
X61187Y22701*
X61036Y22789*
X60903Y22887*
X60779Y23002*
X60664Y23126*
X60566Y23277*
X60478Y23436*
X60398Y23613*
X60336Y23808*
X60283Y24021*
X60248Y24242*
X60230Y24481*
X60221Y24729*
X60230Y25022*
X60256Y25296*
X60301Y25562*
X60372Y25819*
X60451Y26058*
X60549Y26271*
X60664Y26474*
X60797Y26660*
X60939Y26820*
X61098Y26962*
X61275Y27094*
X61461Y27192*
X61665Y27281*
X61877Y27343*
X62099Y27378*
X62338Y27387*
X62595Y27378*
X62816Y27351*
X63011Y27316*
X63180Y27263*
Y26395*
X63002Y26483*
X62808Y26545*
X62613Y26590*
X62400Y26598*
X62276Y26590*
X62152Y26572*
X62037Y26536*
X61931Y26501*
X61824Y26439*
X61736Y26377*
X61647Y26297*
X61567Y26209*
X61497Y26111*
X61426Y26005*
X61373Y25890*
X61328Y25766*
X61293Y25633*
X61257Y25491*
X61240Y25341*
X61231Y25181*
X61257*
X61337Y25287*
X61443Y25385*
X61550Y25465*
X61665Y25527*
X61789Y25580*
X61931Y25615*
X62072Y25633*
X62232Y25642*
X62374Y25633*
X62506Y25615*
X62639Y25580*
X62754Y25535*
X62870Y25482*
X62976Y25411*
X63073Y25332*
X63162Y25243*
X63242Y25146*
X63304Y25031*
X63366Y24915*
X63419Y24782*
X63454Y24650*
X63481Y24499*
X63499Y24348*
X63507Y24189*
X62506Y24127D02*
X62498Y24304D01*
X62471Y24455*
X62418Y24588*
X62356Y24694*
X62267Y24774*
X62161Y24836*
X62037Y24871*
X61886Y24880*
X61753Y24862*
X61629Y24827*
X61523Y24765*
X61435Y24685*
X61364Y24579*
X61311Y24455*
X61275Y24322*
X61266Y24171*
X61275Y24003*
X61311Y23852*
X61364Y23711*
X61443Y23587*
X61532Y23489*
X61638Y23409*
X61762Y23365*
X61895Y23347*
X62028Y23365*
X62152Y23401*
X62250Y23471*
X62338Y23560*
X62409Y23675*
X62462Y23808*
X62498Y23959*
X62506Y24127*
X63503Y24114D02*
G36*
X62506D01*
X62498Y23959*
X62462Y23808*
X62409Y23675*
X62338Y23560*
X62250Y23471*
X62152Y23401*
X62028Y23365*
X61895Y23347*
X61762Y23365*
X61638Y23409*
X61532Y23489*
X61443Y23587*
X61364Y23711*
X61311Y23852*
X61275Y24003*
X61269Y24114*
X60268*
X60283Y24021*
X60336Y23808*
X60398Y23613*
X60478Y23436*
X60566Y23277*
X60664Y23126*
X60779Y23002*
X60903Y22887*
X61036Y22789*
X61187Y22701*
X61346Y22639*
X61523Y22594*
X61700Y22568*
X61895Y22559*
X62064Y22568*
X62232Y22586*
X62391Y22630*
X62542Y22683*
X62684Y22754*
X62816Y22834*
X62940Y22922*
X63056Y23029*
X63153Y23144*
X63242Y23268*
X63321Y23401*
X63383Y23551*
X63437Y23702*
X63481Y23861*
X63499Y24021*
X63503Y24114*
G37*
X62338Y27387D02*
G36*
X62099Y27378D01*
X61877Y27343*
X61665Y27281*
X61461Y27192*
X61275Y27094*
X61098Y26962*
X60939Y26820*
X60797Y26660*
X60664Y26474*
X60549Y26271*
X60451Y26058*
X60372Y25819*
X60301Y25562*
X60256Y25296*
X60230Y25022*
X60221Y24729*
X60230Y24481*
X60248Y24242*
X60268Y24114*
X61269*
X61266Y24171*
X61275Y24322*
X61311Y24455*
X61364Y24579*
X61435Y24685*
X61523Y24765*
X61629Y24827*
X61753Y24862*
X61886Y24880*
X62037Y24871*
X62161Y24836*
X62267Y24774*
X62356Y24694*
X62418Y24588*
X62471Y24455*
X62498Y24304*
X62506Y24127*
X62506Y24114*
X63503*
X63507Y24189*
X63499Y24348*
X63481Y24499*
X63454Y24650*
X63419Y24782*
X63366Y24915*
X63304Y25031*
X63242Y25146*
X63162Y25243*
X63073Y25332*
X62976Y25411*
X62870Y25482*
X62754Y25535*
X62639Y25580*
X62506Y25615*
X62374Y25633*
X62232Y25642*
X62072Y25633*
X61931Y25615*
X61789Y25580*
X61665Y25527*
X61550Y25465*
X61443Y25385*
X61337Y25287*
X61257Y25181*
X61231*
X61240Y25341*
X61257Y25491*
X61293Y25633*
X61328Y25766*
X61373Y25890*
X61426Y26005*
X61497Y26111*
X61567Y26209*
X61647Y26297*
X61736Y26377*
X61824Y26439*
X61931Y26501*
X62037Y26536*
X62152Y26572*
X62276Y26590*
X62400Y26598*
X62613Y26590*
X62808Y26545*
X63002Y26483*
X63180Y26395*
Y27263*
X63011Y27316*
X62816Y27351*
X62595Y27378*
X62338Y27387*
G37*
X63507Y24189D02*
X62506Y24127*
X60677Y100436*
Y95670D01*
X59658*
Y99276*
X59570Y99205*
X59455Y99134*
X59216Y99010*
X59083Y98966*
X58941Y98921*
X58808Y98886*
X58666Y98868*
Y99736*
X59056Y99869*
X59419Y100037*
X59756Y100223*
X59915Y100330*
X60057Y100436*
X60677*
G36*
Y95670*
X59658*
Y99276*
X59570Y99205*
X59455Y99134*
X59216Y99010*
X59083Y98966*
X58941Y98921*
X58808Y98886*
X58666Y98868*
Y99736*
X59056Y99869*
X59419Y100037*
X59756Y100223*
X59915Y100330*
X60057Y100436*
X60677*
G37*
X63202Y96521D02*
X65177D01*
Y95670*
X62077*
Y96016*
X62086Y96193*
X62103Y96361*
X62148Y96512*
X62201Y96662*
X62334Y96937*
X62502Y97176*
X62688Y97389*
X62901Y97575*
X63113Y97743*
X63308Y97894*
X63503Y98035*
X63671Y98168*
X63813Y98301*
X63928Y98434*
X64026Y98567*
X64088Y98700*
X64132Y98842*
X64141Y98992*
X64132Y99134*
X64096Y99258*
X64043Y99364*
X63972Y99444*
X63875Y99515*
X63760Y99568*
X63618Y99594*
X63450Y99603*
X63299Y99594*
X63157Y99577*
X63007Y99532*
X62865Y99479*
X62723Y99417*
X62582Y99338*
X62440Y99240*
X62298Y99125*
Y100029*
X62449Y100117*
X62608Y100197*
X62777Y100268*
X62945Y100321*
X63122Y100365*
X63299Y100392*
X63485Y100409*
X63671Y100418*
X63848Y100409*
X64008Y100392*
X64167Y100365*
X64309Y100321*
X64442Y100277*
X64566Y100215*
X64681Y100144*
X64787Y100055*
X64876Y99967*
X64956Y99869*
X65027Y99763*
X65080Y99639*
X65133Y99515*
X65159Y99382*
X65177Y99240*
X65186Y99090*
X65177Y98939*
X65159Y98788*
X65133Y98647*
X65089Y98523*
X64973Y98283*
X64823Y98062*
X64646Y97867*
X64442Y97690*
X64229Y97522*
X63999Y97353*
X63698Y97132*
X63565Y97026*
X63441Y96919*
X63344Y96813*
X63264Y96716*
X63219Y96618*
X63202Y96521*
G36*
X65177*
Y95670*
X62077*
Y96016*
X62086Y96193*
X62103Y96361*
X62148Y96512*
X62201Y96662*
X62334Y96937*
X62502Y97176*
X62688Y97389*
X62901Y97575*
X63113Y97743*
X63308Y97894*
X63503Y98035*
X63671Y98168*
X63813Y98301*
X63928Y98434*
X64026Y98567*
X64088Y98700*
X64132Y98842*
X64141Y98992*
X64132Y99134*
X64096Y99258*
X64043Y99364*
X63972Y99444*
X63875Y99515*
X63760Y99568*
X63618Y99594*
X63450Y99603*
X63299Y99594*
X63157Y99577*
X63007Y99532*
X62865Y99479*
X62723Y99417*
X62582Y99338*
X62440Y99240*
X62298Y99125*
Y100029*
X62449Y100117*
X62608Y100197*
X62777Y100268*
X62945Y100321*
X63122Y100365*
X63299Y100392*
X63485Y100409*
X63671Y100418*
X63848Y100409*
X64008Y100392*
X64167Y100365*
X64309Y100321*
X64442Y100277*
X64566Y100215*
X64681Y100144*
X64787Y100055*
X64876Y99967*
X64956Y99869*
X65027Y99763*
X65080Y99639*
X65133Y99515*
X65159Y99382*
X65177Y99240*
X65186Y99090*
X65177Y98939*
X65159Y98788*
X65133Y98647*
X65089Y98523*
X64973Y98283*
X64823Y98062*
X64646Y97867*
X64442Y97690*
X64229Y97522*
X63999Y97353*
X63698Y97132*
X63565Y97026*
X63441Y96919*
X63344Y96813*
X63264Y96716*
X63219Y96618*
X63202Y96521*
G37*
X78563Y27839D02*
Y28716D01*
X78687Y28645*
X78811Y28583*
X78935Y28538*
X79059Y28494*
X79183Y28468*
X79315Y28441*
X79448Y28423*
X79581*
X79776Y28432*
X79944Y28468*
X80095Y28530*
X80219Y28618*
X80316Y28724*
X80396Y28849*
X80432Y28990*
X80449Y29141*
X80432Y29309*
X80387Y29451*
X80308Y29566*
X80201Y29663*
X80068Y29743*
X79900Y29796*
X79696Y29832*
X79466Y29841*
X79280*
X79076Y29823*
X78864Y29805*
X78633Y29787*
X78811Y32383*
X81282*
Y31541*
X79590*
X79528Y30611*
X79758Y30620*
X79962Y30629*
X80139Y30620*
X80299Y30602*
X80458Y30576*
X80600Y30532*
X80742Y30478*
X80866Y30416*
X80981Y30337*
X81087Y30248*
X81185Y30151*
X81264Y30044*
X81335Y29929*
X81397Y29805*
X81441Y29681*
X81468Y29539*
X81486Y29389*
X81495Y29238*
X81486Y29061*
X81468Y28902*
X81424Y28742*
X81371Y28592*
X81309Y28450*
X81220Y28317*
X81123Y28193*
X81007Y28078*
X80883Y27980*
X80742Y27883*
X80600Y27812*
X80440Y27750*
X80272Y27697*
X80086Y27661*
X79900Y27644*
X79696Y27635*
X79369Y27644*
X79076Y27688*
X78802Y27750*
X78563Y27839*
G36*
Y28716*
X78687Y28645*
X78811Y28583*
X78935Y28538*
X79059Y28494*
X79183Y28468*
X79315Y28441*
X79448Y28423*
X79581*
X79776Y28432*
X79944Y28468*
X80095Y28530*
X80219Y28618*
X80316Y28724*
X80396Y28849*
X80432Y28990*
X80449Y29141*
X80432Y29309*
X80387Y29451*
X80308Y29566*
X80201Y29663*
X80068Y29743*
X79900Y29796*
X79696Y29832*
X79466Y29841*
X79280*
X79076Y29823*
X78864Y29805*
X78633Y29787*
X78811Y32383*
X81282*
Y31541*
X79590*
X79528Y30611*
X79758Y30620*
X79962Y30629*
X80139Y30620*
X80299Y30602*
X80458Y30576*
X80600Y30532*
X80742Y30478*
X80866Y30416*
X80981Y30337*
X81087Y30248*
X81185Y30151*
X81264Y30044*
X81335Y29929*
X81397Y29805*
X81441Y29681*
X81468Y29539*
X81486Y29389*
X81495Y29238*
X81486Y29061*
X81468Y28902*
X81424Y28742*
X81371Y28592*
X81309Y28450*
X81220Y28317*
X81123Y28193*
X81007Y28078*
X80883Y27980*
X80742Y27883*
X80600Y27812*
X80440Y27750*
X80272Y27697*
X80086Y27661*
X79900Y27644*
X79696Y27635*
X79369Y27644*
X79076Y27688*
X78802Y27750*
X78563Y27839*
G37*
X81530Y95974D02*
Y91208D01*
X80512*
Y94813*
X80423Y94742*
X80308Y94671*
X80069Y94547*
X79936Y94503*
X79794Y94459*
X79661Y94423*
X79520Y94406*
Y95274*
X79909Y95407*
X80273Y95575*
X80609Y95761*
X80769Y95867*
X80910Y95974*
X81530*
G36*
Y91208*
X80512*
Y94813*
X80423Y94742*
X80308Y94671*
X80069Y94547*
X79936Y94503*
X79794Y94459*
X79661Y94423*
X79520Y94406*
Y95274*
X79909Y95407*
X80273Y95575*
X80609Y95761*
X80769Y95867*
X80910Y95974*
X81530*
G37*
X93366Y79536D02*
X95341D01*
Y78685*
X92241*
Y79031*
X92250Y79208*
X92268Y79376*
X92312Y79527*
X92365Y79677*
X92498Y79952*
X92666Y80191*
X92852Y80404*
X93065Y80590*
X93277Y80758*
X93472Y80909*
X93667Y81050*
X93835Y81183*
X93977Y81316*
X94092Y81449*
X94190Y81582*
X94252Y81715*
X94296Y81856*
X94305Y82007*
X94296Y82149*
X94261Y82273*
X94208Y82379*
X94137Y82459*
X94039Y82530*
X93924Y82583*
X93782Y82609*
X93614Y82618*
X93463Y82609*
X93322Y82592*
X93171Y82547*
X93029Y82494*
X92888Y82432*
X92746Y82352*
X92604Y82255*
X92462Y82140*
Y83043*
X92613Y83132*
X92772Y83212*
X92941Y83283*
X93109Y83336*
X93286Y83380*
X93463Y83407*
X93649Y83424*
X93835Y83433*
X94013Y83424*
X94172Y83407*
X94332Y83380*
X94473Y83336*
X94606Y83291*
X94730Y83229*
X94845Y83159*
X94952Y83070*
X95040Y82981*
X95120Y82884*
X95191Y82778*
X95244Y82654*
X95297Y82530*
X95324Y82397*
X95341Y82255*
X95350Y82104*
X95341Y81954*
X95324Y81803*
X95297Y81662*
X95253Y81538*
X95138Y81298*
X94987Y81077*
X94810Y80882*
X94606Y80705*
X94394Y80537*
X94163Y80368*
X93862Y80147*
X93729Y80040*
X93605Y79934*
X93508Y79828*
X93428Y79730*
X93384Y79633*
X93366Y79536*
G36*
X95341*
Y78685*
X92241*
Y79031*
X92250Y79208*
X92268Y79376*
X92312Y79527*
X92365Y79677*
X92498Y79952*
X92666Y80191*
X92852Y80404*
X93065Y80590*
X93277Y80758*
X93472Y80909*
X93667Y81050*
X93835Y81183*
X93977Y81316*
X94092Y81449*
X94190Y81582*
X94252Y81715*
X94296Y81856*
X94305Y82007*
X94296Y82149*
X94261Y82273*
X94208Y82379*
X94137Y82459*
X94039Y82530*
X93924Y82583*
X93782Y82609*
X93614Y82618*
X93463Y82609*
X93322Y82592*
X93171Y82547*
X93029Y82494*
X92888Y82432*
X92746Y82352*
X92604Y82255*
X92462Y82140*
Y83043*
X92613Y83132*
X92772Y83212*
X92941Y83283*
X93109Y83336*
X93286Y83380*
X93463Y83407*
X93649Y83424*
X93835Y83433*
X94013Y83424*
X94172Y83407*
X94332Y83380*
X94473Y83336*
X94606Y83291*
X94730Y83229*
X94845Y83159*
X94952Y83070*
X95040Y82981*
X95120Y82884*
X95191Y82778*
X95244Y82654*
X95297Y82530*
X95324Y82397*
X95341Y82255*
X95350Y82104*
X95341Y81954*
X95324Y81803*
X95297Y81662*
X95253Y81538*
X95138Y81298*
X94987Y81077*
X94810Y80882*
X94606Y80705*
X94394Y80537*
X94163Y80368*
X93862Y80147*
X93729Y80040*
X93605Y79934*
X93508Y79828*
X93428Y79730*
X93384Y79633*
X93366Y79536*
G37*
X95288Y45270D02*
Y42320D01*
X95846*
Y41559*
X95288*
Y40602*
X94349*
Y41559*
X92312*
Y42356*
X92586Y42675*
X92870Y43020*
X93162Y43383*
X93437Y43764*
X93694Y44145*
X93933Y44526*
X94048Y44721*
X94154Y44907*
X94331Y45270*
X95288*
X93233Y42320D02*
X94349D01*
Y43959*
X94234Y43747*
X94101Y43525*
X93818Y43100*
X93525Y42692*
X93375Y42498*
X93233Y42320*
X95288Y43140D02*
G36*
X94349D01*
Y42320*
X93233*
X93375Y42498*
X93525Y42692*
X93818Y43100*
X93844Y43140*
X92966*
X92870Y43020*
X92586Y42675*
X92312Y42356*
Y41559*
X94349*
Y40602*
X95288*
Y41559*
X95846*
Y42320*
X95288*
Y43140*
G37*
Y45270D02*
G36*
X94331D01*
X94154Y44907*
X94048Y44721*
X93933Y44526*
X93694Y44145*
X93437Y43764*
X93162Y43383*
X92966Y43140*
X93844*
X94101Y43525*
X94234Y43747*
X94349Y43959*
Y43140*
X95288*
Y45270*
G37*
X93233Y42320D02*
X97676Y59404*
Y60298D01*
X97800Y60219*
X97924Y60148*
X98048Y60094*
X98181Y60041*
X98322Y60006*
X98464Y59979*
X98615Y59970*
X98774Y59962*
X98960Y59970*
X99120Y60006*
X99270Y60059*
X99385Y60130*
X99483Y60227*
X99554Y60334*
X99589Y60458*
X99607Y60599*
X99589Y60750*
X99536Y60883*
X99456Y60989*
X99332Y61087*
X99190Y61157*
X99013Y61211*
X98810Y61246*
X98588Y61255*
X98154*
Y62043*
X98553*
X98765Y62052*
X98951Y62079*
X99111Y62123*
X99235Y62194*
X99341Y62274*
X99412Y62380*
X99447Y62504*
X99465Y62646*
X99456Y62779*
X99421Y62894*
X99368Y62991*
X99288Y63071*
X99190Y63133*
X99075Y63177*
X98934Y63204*
X98765Y63213*
X98650Y63204*
X98535Y63195*
X98420Y63168*
X98305Y63133*
X98189Y63097*
X98074Y63044*
X97968Y62982*
X97853Y62911*
Y63753*
X98110Y63859*
X98384Y63939*
X98686Y63983*
X98996Y64001*
X99173Y63992*
X99332Y63983*
X99492Y63957*
X99633Y63921*
X99766Y63877*
X99890Y63815*
X100005Y63753*
X100112Y63682*
X100209Y63594*
X100289Y63505*
X100351Y63407*
X100413Y63310*
X100457Y63204*
X100484Y63089*
X100501Y62965*
X100510Y62841*
X100493Y62628*
X100457Y62424*
X100377Y62256*
X100280Y62096*
X100147Y61964*
X99988Y61857*
X99802Y61769*
X99580Y61698*
Y61680*
X99819Y61636*
X100023Y61556*
X100209Y61459*
X100369Y61317*
X100431Y61246*
X100493Y61166*
X100537Y61078*
X100581Y60989*
X100608Y60892*
X100634Y60794*
X100652Y60697*
Y60591*
X100643Y60431*
X100626Y60281*
X100581Y60139*
X100537Y60006*
X100466Y59882*
X100386Y59758*
X100289Y59652*
X100174Y59554*
X100050Y59466*
X99908Y59386*
X99766Y59324*
X99607Y59271*
X99430Y59226*
X99252Y59200*
X99058Y59182*
X98854Y59173*
X98508Y59191*
X98198Y59235*
X97915Y59306*
X97676Y59404*
G36*
Y60298*
X97800Y60219*
X97924Y60148*
X98048Y60094*
X98181Y60041*
X98322Y60006*
X98464Y59979*
X98615Y59970*
X98774Y59962*
X98960Y59970*
X99120Y60006*
X99270Y60059*
X99385Y60130*
X99483Y60227*
X99554Y60334*
X99589Y60458*
X99607Y60599*
X99589Y60750*
X99536Y60883*
X99456Y60989*
X99332Y61087*
X99190Y61157*
X99013Y61211*
X98810Y61246*
X98588Y61255*
X98154*
Y62043*
X98553*
X98765Y62052*
X98951Y62079*
X99111Y62123*
X99235Y62194*
X99341Y62274*
X99412Y62380*
X99447Y62504*
X99465Y62646*
X99456Y62779*
X99421Y62894*
X99368Y62991*
X99288Y63071*
X99190Y63133*
X99075Y63177*
X98934Y63204*
X98765Y63213*
X98650Y63204*
X98535Y63195*
X98420Y63168*
X98305Y63133*
X98189Y63097*
X98074Y63044*
X97968Y62982*
X97853Y62911*
Y63753*
X98110Y63859*
X98384Y63939*
X98686Y63983*
X98996Y64001*
X99173Y63992*
X99332Y63983*
X99492Y63957*
X99633Y63921*
X99766Y63877*
X99890Y63815*
X100005Y63753*
X100112Y63682*
X100209Y63594*
X100289Y63505*
X100351Y63407*
X100413Y63310*
X100457Y63204*
X100484Y63089*
X100501Y62965*
X100510Y62841*
X100493Y62628*
X100457Y62424*
X100377Y62256*
X100280Y62096*
X100147Y61964*
X99988Y61857*
X99802Y61769*
X99580Y61698*
Y61680*
X99819Y61636*
X100023Y61556*
X100209Y61459*
X100369Y61317*
X100431Y61246*
X100493Y61166*
X100537Y61078*
X100581Y60989*
X100608Y60892*
X100634Y60794*
X100652Y60697*
Y60591*
X100643Y60431*
X100626Y60281*
X100581Y60139*
X100537Y60006*
X100466Y59882*
X100386Y59758*
X100289Y59652*
X100174Y59554*
X100050Y59466*
X99908Y59386*
X99766Y59324*
X99607Y59271*
X99430Y59226*
X99252Y59200*
X99058Y59182*
X98854Y59173*
X98508Y59191*
X98198Y59235*
X97915Y59306*
X97676Y59404*
G37*
D02*
D97*
X54921Y52559D02*
G36*
Y54921D01*
X52559*
Y52559*
X54921*
G37*
D02*
D236*
X18530Y63322D02*
X21457Y61811D01*
X18530Y60300*
X18530Y63322*
G36*
X21457Y61811*
X18530Y60300*
X18530Y63322*
G37*
X23573Y41480D02*
X26863Y41634D01*
X25085Y38862*
X23573Y41480*
G36*
X26863Y41634*
X25085Y38862*
X23573Y41480*
G37*
X25085Y84760D02*
X26863Y81988D01*
X23573Y82142*
X25085Y84760*
G36*
X26863Y81988*
X23573Y82142*
X25085Y84760*
G37*
X38862Y25085D02*
X41634Y26863D01*
X41480Y23573*
X38862Y25085*
G36*
X41634Y26863*
X41480Y23573*
X38862Y25085*
G37*
X41480Y100049D02*
X38862Y98538D01*
X41634Y96759*
X41480Y100049*
G36*
X38862Y98538*
X41634Y96759*
X41480Y100049*
G37*
X60300Y18530D02*
X61811Y21457D01*
X63322Y18530*
X60300Y18530*
G36*
X61811Y21457*
X63322Y18530*
X60300Y18530*
G37*
X63322Y105092D02*
X61811Y102165D01*
X60300Y105092*
X63322*
G36*
X61811Y102165*
X60300Y105092*
X63322*
G37*
X82142Y23573D02*
X81988Y26863D01*
X84760Y25085*
X82142Y23573*
G36*
X81988Y26863*
X84760Y25085*
X82142Y23573*
G37*
X84760Y98538D02*
X81988Y96759D01*
X82142Y100049*
X84760Y98538*
G36*
X81988Y96759*
X82142Y100049*
X84760Y98538*
G37*
X98538Y38862D02*
X96759Y41634D01*
X100049Y41480*
X98538Y38862*
G36*
X96759Y41634*
X100049Y41480*
X98538Y38862*
G37*
X100049Y82142D02*
X96759Y81988D01*
X98538Y84760*
X100049Y82142*
G36*
X96759Y81988*
X98538Y84760*
X100049Y82142*
G37*
X105092Y60300D02*
X102165Y61811D01*
X105092Y63322*
X105092Y60300*
G36*
X102165Y61811*
X105092Y63322*
X105092Y60300*
G37*
X0Y0D02*
M02*
